<?xml version="1.0" standalone="no"?>
<!DOCTYPE svg PUBLIC "-//W3C//DTD SVG 20010904//EN"
 "http://www.w3.org/TR/2001/REC-SVG-20010904/DTD/svg10.dtd">
<svg version="1.0" xmlns="http://www.w3.org/2000/svg"
 width="1280.000000pt" height="853.000000pt" viewBox="0 0 1280.000000 853.000000"
 preserveAspectRatio="xMidYMid meet">

<g transform="translate(0.000000,853.000000) scale(0.100000,-0.100000)"
fill="#000000" stroke="none">
<path d="M6114 7325 c-45 -7 -88 -16 -95 -21 -8 -5 -21 -9 -29 -9 -23 -2 -104
-27 -114 -37 -6 -4 -18 -8 -28 -8 -10 0 -18 -5 -18 -11 0 -5 -4 -7 -10 -4 -5
3 -10 1 -10 -4 0 -6 -5 -11 -11 -11 -13 0 -101 -41 -109 -51 -3 -3 -16 -12
-29 -19 -14 -7 -30 -17 -35 -21 -48 -40 -151 -109 -162 -109 -8 0 -14 -3 -14
-8 0 -4 -13 -13 -29 -20 -15 -7 -47 -30 -71 -52 -24 -22 -46 -40 -48 -40 -10
0 -176 -176 -214 -228 -40 -53 -111 -182 -101 -182 3 0 1 -6 -4 -12 -19 -24
-75 -201 -77 -243 -1 -11 -4 -25 -8 -31 -4 -7 -10 -36 -12 -65 -3 -30 -6 -55
-7 -56 -1 -2 -2 -6 -3 -10 -1 -5 -5 -14 -10 -21 -4 -8 -2 -20 6 -29 9 -12 9
-15 1 -9 -9 5 -13 0 -12 -16 1 -13 -2 -43 -5 -68 -4 -25 -4 -62 0 -83 5 -35 8
-37 22 -24 10 9 43 24 75 35 32 11 64 25 70 31 7 7 8 11 2 9 -5 -2 -10 2 -10
7 0 6 5 10 12 10 6 0 15 4 20 9 5 5 2 6 -5 2 -11 -7 -11 -4 -1 13 8 12 16 16
20 9 5 -7 8 -7 10 1 3 7 9 7 19 1 13 -9 13 -11 1 -19 -32 -21 44 -23 157 -6
82 13 196 20 382 23 228 3 287 1 415 -16 254 -35 296 -36 430 -12 342 61 483
78 673 81 94 1 118 8 92 24 -5 3 -10 11 -10 16 0 6 13 1 29 -10 54 -39 71 -17
18 23 -25 18 -28 19 -45 3 -20 -18 -57 -24 -47 -7 3 6 -1 10 -9 10 -9 0 -16
-7 -16 -15 0 -14 -18 -20 -50 -16 -8 1 -33 4 -55 7 -22 3 -46 5 -52 4 -23 -2
-57 -2 -148 0 -56 2 -90 -1 -93 -8 -2 -7 -15 -6 -38 4 -19 8 -34 11 -34 8 0
-4 -7 -1 -15 6 -8 6 -19 9 -25 5 -5 -3 -10 -1 -10 4 0 6 -4 11 -10 11 -5 0
-10 -7 -10 -15 0 -14 -18 -20 -49 -15 -9 1 -12 -4 -7 -16 5 -13 3 -14 -6 -7
-7 6 -22 9 -33 7 -18 -3 -17 0 5 17 23 18 24 20 8 30 -10 5 -18 18 -18 27 0
15 -2 15 -10 2 -8 -12 -10 -11 -10 7 0 13 5 22 11 20 6 -1 13 6 14 15 3 17 2
17 -21 0 -14 -10 -22 -24 -20 -34 2 -10 0 -21 -5 -24 -5 -3 -9 -14 -9 -25 0
-10 -3 -19 -8 -19 -4 0 -13 -14 -20 -30 -8 -17 -18 -27 -25 -23 -6 4 -8 1 -5
-8 5 -13 -3 -14 -46 -8 -28 3 -55 4 -59 2 -4 -3 -15 1 -24 9 -14 11 -16 11 -8
-1 6 -11 2 -13 -20 -7 -23 6 -26 4 -21 -9 3 -10 2 -14 -5 -10 -5 4 -7 15 -4
25 7 24 -11 35 -31 19 -11 -9 -18 -9 -26 -1 -7 7 -20 12 -30 12 -10 0 -18 5
-18 11 0 7 -11 9 -27 6 -28 -6 -63 11 -63 31 0 13 -29 24 -43 15 -7 -4 -8 0
-4 11 6 16 2 17 -45 12 -39 -4 -47 -3 -30 4 23 10 29 25 12 35 -15 9 -12 45 4
45 8 0 18 -5 21 -10 4 -6 10 -8 15 -5 5 3 11 1 15 -5 3 -5 0 -10 -8 -10 -8 0
-17 -7 -21 -15 -3 -8 -1 -15 4 -15 6 0 10 4 10 9 0 5 14 14 31 20 26 9 30 8
25 -4 -8 -23 12 -28 24 -5 7 13 7 20 0 20 -15 0 -12 18 4 22 12 2 12 9 2 39
-10 28 -10 36 0 36 7 0 10 -7 7 -15 -5 -12 -2 -12 15 -3 12 7 22 14 22 17 0 3
-6 2 -12 -2 -9 -5 -9 -2 1 9 7 9 15 38 16 65 4 72 4 74 15 67 6 -3 10 -1 10 5
0 7 -8 9 -20 5 -15 -5 -18 -3 -14 9 3 9 15 16 26 16 14 0 18 5 14 15 -5 15 26
39 38 28 5 -5 11 62 8 106 0 8 6 21 15 29 13 13 16 13 24 1 7 -12 9 -12 9 0 0
8 3 12 6 8 11 -11 -7 -46 -22 -40 -7 3 -14 0 -14 -6 0 -6 6 -10 13 -8 8 1 11
-8 9 -28 -2 -20 0 -26 6 -17 7 11 10 10 16 -3 3 -9 4 -21 1 -26 -4 -5 1 -6 9
-3 8 3 12 12 9 21 -5 12 -1 14 18 8 21 -7 22 -6 11 8 -9 10 -10 17 -2 22 6 3
8 11 5 16 -11 17 6 48 33 58 15 6 18 9 7 7 -11 -2 -29 -7 -39 -12 -14 -5 -17
-4 -12 4 7 11 3 14 -26 16 -25 2 -25 30 0 53 21 19 24 29 20 67 -3 25 -1 49 5
55 6 6 11 30 13 53 1 24 0 30 -3 14 -4 -22 -7 -26 -14 -15 -7 11 -9 11 -9 -4
0 -10 -5 -15 -10 -12 -6 4 -8 11 -5 16 4 5 1 9 -4 9 -6 0 -11 4 -11 9 0 5 10
7 23 5 12 -2 4 3 -18 10 -27 10 -33 15 -19 15 12 1 25 8 28 17 5 14 4 15 -9 4
-12 -10 -18 -10 -30 0 -18 15 -19 30 -2 30 7 0 12 13 12 33 0 22 4 31 14 29 8
-2 11 3 8 11 -3 8 1 14 9 14 8 0 13 -6 10 -12 -2 -6 2 -12 9 -12 8 0 11 7 7
15 -3 10 -1 13 6 8 8 -5 10 -2 5 10 -5 14 -3 15 16 5 16 -9 20 -18 16 -34 -4
-15 -3 -18 3 -9 11 16 64 -1 60 -19 -2 -6 3 -14 11 -17 8 -3 11 0 7 7 -5 7 -1
9 8 5 17 -6 45 17 47 38 1 7 5 2 9 -12 7 -22 8 -22 9 -4 1 11 13 31 28 45 14
13 23 18 19 12 -4 -8 -1 -13 9 -13 9 0 14 3 11 8 -2 4 9 8 26 9 21 0 27 -2 19
-10 -6 -6 -11 -18 -11 -26 0 -12 3 -12 12 -3 16 16 48 15 48 0 0 -7 11 -1 25
14 17 19 33 25 54 24 17 -1 32 2 34 8 2 5 35 10 74 10 39 1 75 4 79 9 15 14
25 7 19 -14 -6 -19 -5 -20 17 -8 27 15 68 21 68 11 0 -4 20 -14 44 -21 25 -7
46 -16 48 -20 4 -10 78 -64 78 -57 0 3 -20 25 -45 48 -60 57 -73 68 -81 68 -3
0 -19 11 -36 25 -37 31 -248 136 -259 129 -5 -3 -9 -1 -9 4 0 15 -43 23 -52 9
-5 -8 -8 -7 -8 4 0 9 -6 16 -12 17 -34 4 -68 11 -76 16 -10 6 -172 17 -305 20
-51 1 -129 -3 -173 -9z m563 -147 c-3 -8 -6 -5 -6 6 -1 11 2 17 5 13 3 -3 4
-12 1 -19z m-789 -96 c-10 -2 -18 -11 -18 -20 0 -11 -8 -17 -25 -17 -16 0 -23
5 -20 13 2 6 0 12 -4 12 -5 0 -11 -6 -14 -14 -3 -7 -17 -16 -31 -18 -23 -5
-26 -3 -20 15 4 13 2 17 -5 13 -6 -4 -11 -15 -12 -24 0 -11 -3 -12 -6 -4 -6
14 -53 16 -53 2 0 -6 -25 -35 -55 -65 -30 -29 -55 -56 -55 -59 0 -3 8 -6 17
-6 12 0 3 -13 -27 -40 -24 -22 -47 -40 -51 -40 -4 0 -15 -7 -24 -16 -14 -14
-14 -19 -2 -38 27 -41 4 -125 -30 -112 -9 4 -11 1 -7 -5 4 -6 0 -16 -7 -21
-11 -7 -9 -9 7 -5 17 4 20 1 16 -15 -3 -13 -10 -17 -26 -13 -16 5 -17 4 -7 -3
12 -9 12 -12 -1 -26 -9 -8 -18 -12 -22 -9 -3 4 -6 1 -6 -6 0 -12 -9 -25 -44
-64 -13 -14 -21 -17 -24 -8 -3 8 -8 6 -17 -6 -7 -10 -17 -14 -21 -10 -5 4 -2
12 5 16 7 5 11 13 7 19 -3 6 -1 23 4 38 11 27 10 28 -8 11 -18 -17 -20 -16
-37 9 -9 15 -11 23 -4 19 8 -6 11 -4 6 7 -3 10 0 15 11 14 9 0 17 6 17 14 0 8
4 20 8 26 4 7 0 15 -9 18 -13 5 -15 1 -12 -19 3 -13 1 -22 -4 -19 -5 3 -16 0
-25 -8 -15 -11 -15 -11 -6 7 9 15 8 22 -4 30 -13 10 -13 15 -2 35 8 13 24 34
36 47 29 30 54 78 46 87 -4 3 -2 6 4 6 6 0 16 12 22 28 6 15 26 37 44 49 17
12 56 45 85 73 30 28 66 56 80 62 38 15 71 18 77 7 4 -5 18 2 33 16 17 16 29
21 33 13 4 -6 12 -7 20 -2 16 10 59 12 59 3 0 -7 68 5 76 14 3 3 15 2 27 -1
18 -5 19 -7 5 -10z m317 -19 c10 -14 9 -23 -4 -50 -19 -38 -31 -43 -24 -10 4
21 4 21 -8 2 -7 -11 -16 -23 -21 -26 -16 -10 -56 2 -54 17 3 21 16 30 16 11 0
-9 4 -17 9 -17 6 0 9 9 8 20 -1 11 -5 20 -10 20 -5 0 -2 7 7 15 9 9 26 14 40
11 18 -3 23 -1 19 10 -7 19 7 18 22 -3z m-175 -17 c0 -11 -19 -15 -25 -6 -3 5
1 10 9 10 9 0 16 -2 16 -4z m51 -29 c-6 -8 -7 -18 -3 -22 4 -5 1 -5 -6 -1 -10
6 -10 11 -1 22 6 8 14 14 16 14 3 0 0 -6 -6 -13z m-307 -105 c-6 -4 -14 -16
-17 -26 -4 -10 -10 -16 -13 -13 -9 8 15 47 29 47 8 0 9 -3 1 -8z m-44 -10 c0
-13 -12 -22 -22 -16 -10 6 -1 24 13 24 5 0 9 -4 9 -8z m57 -47 c0 -11 -4 -12
-14 -4 -7 6 -13 13 -13 15 0 2 6 4 13 4 8 0 14 -7 14 -15z m-17 -30 c0 -8 -4
-16 -9 -19 -5 -3 -8 5 -8 19 0 14 3 22 8 19 5 -3 9 -11 9 -19z m-210 5 c0 -5
-4 -10 -10 -10 -5 0 -10 5 -10 10 0 6 5 10 10 10 6 0 10 -4 10 -10z m370 -17
c0 -20 -24 -11 -28 10 -2 12 1 15 12 11 9 -3 16 -13 16 -21z m-410 -3 c0 -5
-5 -10 -11 -10 -5 0 -7 5 -4 10 3 6 8 10 11 10 2 0 4 -4 4 -10z m692 -7 c-6
-3 -9 -10 -6 -15 4 -7 2 -8 -5 -4 -9 6 -9 11 0 22 6 8 15 12 18 8 3 -4 0 -9
-7 -11z m38 -38 c0 -9 -9 -15 -22 -15 -21 0 -21 0 -2 15 24 18 24 18 24 0z
m-726 -21 c3 -8 2 -12 -4 -9 -6 3 -10 10 -10 16 0 14 7 11 14 -7z m633 -66
c-3 -8 -6 -5 -6 6 -1 11 2 17 5 13 3 -3 4 -12 1 -19z m47 -16 c2 -4 -4 -8 -15
-8 -10 0 -19 4 -19 8 0 4 6 8 14 8 8 0 17 -4 20 -8z m-964 -26 c0 -2 -3 -12
-6 -20 -5 -13 -9 -14 -20 -5 -20 16 -17 29 6 29 11 0 20 -2 20 -4z m925 -18
c-3 -13 -7 -45 -9 -71 -2 -27 -7 -51 -11 -55 -4 -4 -4 16 -1 45 3 32 2 53 -5
55 -5 2 -7 11 -4 21 4 9 11 14 16 11 5 -3 9 0 9 5 0 6 2 11 5 11 3 0 3 -10 0
-22z m-948 -52 c20 -3 25 -13 9 -19 -8 -3 -25 3 -38 14 -21 19 -21 20 -3 14
11 -4 25 -8 32 -9z m1046 -16 c-3 -11 -9 -17 -15 -14 -5 3 -4 12 3 20 16 19
18 18 12 -6z m-171 -22 c-7 -7 -12 -8 -12 -2 0 14 12 26 19 19 2 -3 -1 -11 -7
-17z m25 0 c-3 -8 -6 -5 -6 6 -1 11 2 17 5 13 3 -3 4 -12 1 -19z m-957 -13 c0
-8 -4 -15 -10 -15 -5 0 -10 7 -10 15 0 8 5 15 10 15 6 0 10 -7 10 -15z m83
-38 c4 3 7 1 7 -5 0 -6 -9 -16 -20 -22 -16 -9 -19 -8 -13 6 4 12 3 15 -5 10
-8 -5 -10 -2 -6 9 5 11 10 13 19 5 6 -5 15 -7 18 -3z m33 -29 c4 -7 3 -10 -1
-5 -5 4 -20 -3 -34 -15 l-26 -23 24 28 c28 31 28 31 37 15z m-87 -21 c-9 -7
-19 -21 -22 -32 -4 -16 -5 -15 -6 6 -1 30 6 39 28 39 14 -1 14 -2 0 -13z m881
-83 c0 -8 5 -12 10 -9 6 3 10 2 10 -4 0 -5 -4 -13 -10 -16 -5 -3 -10 -1 -10 5
0 6 -4 9 -8 6 -4 -2 -9 4 -9 15 -1 10 2 19 8 19 5 0 9 -7 9 -16z m-770 -4 c0
-5 -2 -10 -4 -10 -3 0 -8 5 -11 10 -3 6 -1 10 4 10 6 0 11 -4 11 -10z m-235
-20 c-3 -5 -12 -10 -18 -10 -7 0 -6 4 3 10 19 12 23 12 15 0z m2 -56 c-3 -3
-12 -4 -19 -1 -8 3 -5 6 6 6 11 1 17 -2 13 -5z m764 -97 c-10 -9 -11 -8 -5 6
3 10 9 15 12 12 3 -3 0 -11 -7 -18z m78 -31 c15 -18 15 -18 -9 -11 -32 10 -30
7 -23 35 4 16 8 20 11 10 3 -8 12 -23 21 -34z m-906 -26 c-3 -11 -11 -20 -18
-20 -7 0 -15 -6 -18 -12 -3 -10 -7 -10 -17 -1 -17 15 -3 35 20 28 11 -3 20 0
24 10 8 22 15 18 9 -5z m133 -102 c-9 -5 -16 -16 -16 -23 0 -8 -7 -15 -15 -15
-21 0 -19 7 13 39 15 16 29 24 31 18 2 -5 -4 -14 -13 -19z m1667 15 c-7 -2
-19 -2 -25 0 -7 3 -2 5 12 5 14 0 19 -2 13 -5z m-583 -27 c0 -3 -4 -8 -10 -11
-5 -3 -10 -1 -10 4 0 6 5 11 10 11 6 0 10 -2 10 -4z"/>
<path d="M6140 7040 c0 -5 10 -10 23 -10 18 0 19 2 7 10 -19 13 -30 13 -30 0z"/>
<path d="M6140 7010 c0 -5 5 -10 10 -10 6 0 10 5 10 10 0 6 -4 10 -10 10 -5 0
-10 -4 -10 -10z"/>
<path d="M7273 6885 c54 -53 97 -98 97 -101 0 -3 25 -30 55 -60 31 -30 53 -54
50 -54 -5 0 3 -12 32 -44 7 -8 9 -16 6 -20 -4 -3 -1 -6 6 -6 8 0 11 -7 7 -15
-4 -10 1 -15 14 -15 18 0 24 -17 19 -56 0 -3 10 -14 22 -24 12 -11 19 -26 15
-35 -3 -9 0 -15 9 -15 8 0 14 -3 13 -7 -1 -9 9 -40 23 -66 5 -10 7 -22 4 -27
-4 -6 0 -10 8 -10 16 0 17 -41 2 -52 -6 -4 -2 -8 8 -8 20 0 24 -45 5 -53 -8
-3 -5 -6 6 -6 14 -1 17 -7 14 -26 -3 -14 -1 -25 6 -25 6 0 4 -5 -4 -10 -13 -9
-13 -10 0 -10 13 0 13 -1 0 -10 -13 -8 -12 -10 3 -10 13 0 17 -5 12 -19 -3
-10 -1 -38 5 -62 6 -24 13 -66 15 -94 4 -67 4 -67 14 -61 11 7 2 126 -19 226
-6 30 -13 70 -16 89 -9 71 -15 98 -36 164 -11 37 -25 67 -30 67 -5 0 -7 4 -4
9 3 5 -1 25 -9 45 -8 20 -15 38 -15 41 0 25 -120 179 -225 290 -50 53 -185
165 -198 165 -6 0 33 -43 86 -95z"/>
<path d="M6308 6963 c7 -3 16 -2 19 1 4 3 -2 6 -13 5 -11 0 -14 -3 -6 -6z"/>
<path d="M6405 6880 c-3 -5 -1 -10 4 -10 6 0 11 5 11 10 0 6 -2 10 -4 10 -3 0
-8 -4 -11 -10z"/>
<path d="M6431 6879 c-1 -10 -13 -20 -28 -24 -21 -5 -24 -8 -12 -15 17 -11 54
21 46 41 -4 10 -6 9 -6 -2z"/>
<path d="M6575 6810 c-3 -5 -1 -10 4 -10 6 0 11 5 11 10 0 6 -2 10 -4 10 -3 0
-8 -4 -11 -10z"/>
<path d="M6290 6799 c0 -5 5 -7 10 -4 6 3 10 8 10 11 0 2 -4 4 -10 4 -5 0 -10
-5 -10 -11z"/>
<path d="M6529 6793 c-12 -15 -12 -16 4 -10 11 4 17 2 17 -8 0 -8 -4 -15 -10
-15 -5 0 -10 -9 -10 -21 0 -11 4 -17 10 -14 6 4 17 1 25 -5 10 -8 15 -9 15 -2
0 6 -4 13 -9 16 -4 3 -6 16 -4 29 6 33 -20 53 -38 30z"/>
<path d="M6660 6790 c0 -5 9 -10 20 -10 11 0 20 5 20 10 0 6 -9 10 -20 10 -11
0 -20 -4 -20 -10z"/>
<path d="M6500 6785 c0 -5 5 -17 10 -25 5 -8 10 -10 10 -5 0 6 -5 17 -10 25
-5 8 -10 11 -10 5z"/>
<path d="M6585 6769 c-4 -6 -5 -12 -2 -15 2 -3 7 2 10 11 7 17 1 20 -8 4z"/>
<path d="M6710 6770 c0 -6 -11 -8 -25 -6 -19 4 -25 0 -25 -13 0 -13 8 -18 28
-19 22 0 28 4 30 24 1 13 0 24 -3 24 -3 0 -5 -5 -5 -10z"/>
<path d="M6280 6746 c0 -2 7 -6 15 -10 8 -3 15 -1 15 4 0 6 -7 10 -15 10 -8 0
-15 -2 -15 -4z"/>
<path d="M6365 6720 c-8 -26 -3 -33 19 -24 20 8 20 18 2 33 -11 10 -16 8 -21
-9z"/>
<path d="M6480 6704 c0 -13 18 -39 24 -34 2 3 -2 14 -10 24 -8 11 -14 16 -14
10z"/>
<path d="M6523 6691 c0 -11 5 -18 9 -15 4 3 5 11 1 19 -7 21 -12 19 -10 -4z"/>
<path d="M6245 6660 c3 -5 8 -10 11 -10 2 0 4 5 4 10 0 6 -5 10 -11 10 -5 0
-7 -4 -4 -10z"/>
<path d="M6530 6652 c0 -5 -7 -17 -16 -28 -8 -10 -13 -13 -9 -7 4 9 1 11 -10
7 -9 -4 -14 -12 -11 -19 7 -18 -45 -30 -55 -13 -5 7 -7 20 -4 28 3 8 -5 4 -17
-10 -14 -16 -19 -19 -15 -7 8 22 -29 24 -61 1 -16 -11 -21 -21 -16 -40 5 -20
2 -24 -17 -25 l-24 0 23 -12 c19 -8 25 -8 33 4 6 11 9 8 9 -11 1 -22 2 -23 11
-7 6 9 15 14 21 11 6 -4 14 0 19 7 6 9 9 10 9 2 0 -6 -10 -19 -22 -27 -12 -9
-17 -16 -10 -16 15 0 52 36 45 44 -4 3 1 6 11 6 9 0 14 -4 11 -10 -3 -6 1 -7
9 -4 9 3 16 1 16 -5 0 -6 5 -11 11 -11 5 0 8 4 4 9 -3 5 3 12 12 16 10 3 27
12 37 20 20 15 20 15 0 30 -17 13 -17 14 -1 15 9 0 17 -4 17 -10 0 -5 6 -10
14 -10 8 0 13 8 11 18 -1 9 -8 16 -15 14 -9 -2 -8 5 4 23 16 24 16 25 -4 25
-11 0 -20 -4 -20 -8z"/>
<path d="M6186 6535 c4 -8 8 -15 10 -15 2 0 4 7 4 15 0 8 -4 15 -10 15 -5 0
-7 -7 -4 -15z"/>
<path d="M6451 6464 c0 -11 3 -14 6 -6 3 7 2 16 -1 19 -3 4 -6 -2 -5 -13z"/>
<path d="M6176 6445 c4 -8 10 -15 15 -15 5 0 9 7 9 15 0 8 -7 15 -15 15 -9 0
-12 -6 -9 -15z"/>
<path d="M6100 6363 c0 -13 29 -38 35 -31 3 3 -4 13 -15 23 -11 10 -20 13 -20
8z"/>
<path d="M6060 6220 c0 -5 5 -10 10 -10 6 0 10 5 10 10 0 6 -4 10 -10 10 -5 0
-10 -4 -10 -10z"/>
<path d="M6074 6183 c4 -9 1 -20 -6 -25 -10 -6 -10 -8 -1 -8 7 0 17 9 22 19 8
15 7 20 -5 25 -12 5 -15 2 -10 -11z"/>
<path d="M6130 6179 c0 -5 5 -7 10 -4 6 3 10 8 10 11 0 2 -4 4 -10 4 -5 0 -10
-5 -10 -11z"/>
<path d="M6110 6160 c0 -5 5 -10 11 -10 5 0 7 5 4 10 -3 6 -8 10 -11 10 -2 0
-4 -4 -4 -10z"/>
<path d="M6227 6133 c-4 -3 -7 -11 -7 -17 0 -6 5 -5 12 2 6 6 9 14 7 17 -3 3
-9 2 -12 -2z"/>
<path d="M6071 6102 c-17 -31 -13 -40 5 -14 9 13 14 26 11 29 -3 2 -10 -4 -16
-15z"/>
<path d="M6091 6064 c0 -11 3 -14 6 -6 3 7 2 16 -1 19 -3 4 -6 -2 -5 -13z"/>
<path d="M6223 6045 c-7 -8 -9 -16 -4 -19 5 -3 12 1 15 10 8 22 4 25 -11 9z"/>
<path d="M6841 5969 c-41 -5 -155 -25 -255 -44 -213 -41 -302 -44 -491 -14
-168 26 -504 36 -670 20 -173 -17 -357 -49 -367 -63 -5 -7 -6 -36 -3 -64 l6
-51 -95 3 c-92 3 -96 2 -96 -18 0 -15 -3 -18 -12 -11 -17 13 -58 14 -58 2 0
-6 -4 -8 -9 -5 -5 3 -14 -1 -21 -10 -7 -8 -19 -13 -25 -10 -13 5 -48 -37 -58
-69 -10 -32 -12 -289 -2 -304 10 -17 27 -182 23 -231 -3 -41 -1 -152 3 -179 2
-11 7 -17 13 -14 5 4 6 -6 1 -23 -22 -82 -23 -92 -9 -90 7 1 25 13 39 26 14
13 25 19 25 12 0 -6 -11 -19 -23 -29 -31 -24 -48 -57 -51 -99 -4 -49 30 -77
101 -84 l55 -5 29 -110 c17 -60 33 -123 38 -140 4 -16 16 -46 26 -65 10 -19
20 -42 21 -50 1 -8 17 -55 35 -105 30 -78 33 -98 29 -155 -9 -122 15 -221 110
-455 93 -225 322 -682 351 -696 8 -4 34 -12 59 -19 36 -9 60 -27 118 -88 54
-56 76 -72 82 -62 6 10 9 9 13 -6 3 -12 5 -7 6 13 0 17 6 35 12 39 8 5 9 -8 4
-44 -6 -49 -6 -50 33 -83 35 -30 100 -66 347 -195 131 -68 223 -148 275 -240
l30 -54 28 32 c16 18 63 77 106 131 43 54 138 160 211 237 134 140 195 216
195 244 0 8 7 22 15 30 9 9 20 41 25 71 14 87 67 154 122 155 26 1 65 77 103
200 21 69 61 179 88 245 76 187 146 399 91 278 -61 -135 -119 -248 -158 -309
-53 -81 -187 -224 -211 -224 -9 0 -22 -6 -29 -12 -8 -7 -23 -19 -34 -27 -12
-8 -18 -19 -15 -23 3 -5 -1 -8 -8 -6 -8 1 -29 -4 -47 -11 -25 -10 -30 -16 -20
-23 9 -6 6 -7 -9 -3 -13 3 -23 3 -23 -2 0 -5 -8 -9 -17 -9 -10 -1 -27 -4 -38
-8 -17 -7 -17 -6 -5 4 13 10 13 11 0 6 -19 -6 -120 -37 -138 -42 -7 -2 -10 -9
-6 -15 4 -7 3 -9 -4 -5 -5 3 -12 1 -14 -5 -3 -8 -14 -7 -36 5 -29 15 -36 14
-33 -6 2 -13 -17 -9 -22 5 -3 7 -6 5 -6 -5 -1 -18 -21 -26 -21 -9 0 5 -8 12
-17 14 -16 4 28 11 49 8 12 -1 21 43 9 47 -6 2 -11 8 -11 13 0 6 4 8 9 5 5 -3
12 2 15 11 9 24 -26 45 -39 23 -4 -6 1 -7 12 -4 15 5 15 4 3 -4 -18 -14 -30
-6 -30 20 0 16 -3 18 -13 10 -17 -15 -54 -11 -54 5 0 6 3 10 7 8 14 -8 42 37
36 59 -4 15 -1 23 8 23 10 0 12 -10 9 -31 -3 -23 -1 -27 6 -16 8 11 11 11 11
2 0 -10 5 -10 20 -2 11 6 20 15 20 21 0 6 -5 7 -12 3 -7 -4 -8 -3 -4 4 4 7 17
9 31 6 13 -3 26 0 31 7 5 9 2 10 -9 6 -21 -8 -22 3 -1 29 14 17 15 17 10 1 -5
-17 -5 -17 18 0 13 10 20 20 15 21 -18 7 -8 20 11 15 23 -6 27 15 9 49 -8 16
-8 19 2 16 7 -2 14 -17 16 -34 5 -38 28 -63 36 -40 4 9 2 16 -2 16 -14 0 0 43
20 63 10 9 23 17 30 17 6 0 8 7 5 16 -6 15 -4 15 11 3 9 -8 14 -9 10 -3 -4 7
0 14 8 18 8 3 12 12 9 20 -3 8 -1 17 5 21 6 3 11 17 11 31 0 13 5 24 11 24 5
0 8 -4 4 -9 -3 -5 -1 -12 5 -16 6 -4 8 -11 5 -16 -3 -5 1 -6 9 -3 12 5 13 10
5 26 -8 16 -8 23 2 29 10 6 11 9 2 9 -7 0 -13 5 -13 11 0 5 4 8 9 5 4 -3 6 5
4 18 -4 18 -10 22 -25 18 -23 -6 -36 -31 -21 -41 6 -4 2 -21 -11 -46 -16 -30
-28 -41 -49 -43 -19 -2 -27 1 -22 8 4 6 9 9 12 6 9 -9 35 23 30 37 -4 8 -6 8
-6 -2 -1 -11 -5 -10 -16 5 -13 18 -14 18 -8 -5 4 -17 3 -22 -5 -17 -7 4 -12 2
-12 -4 0 -7 -7 -9 -16 -6 -8 3 -13 2 -10 -3 3 -5 -1 -14 -9 -21 -8 -7 -15 -20
-15 -29 0 -14 -2 -14 -11 -1 -8 11 -12 12 -16 3 -2 -7 -11 -13 -19 -13 -8 0
-14 -10 -14 -25 0 -25 -20 -37 -20 -12 -1 7 -6 5 -14 -6 -14 -18 -14 -18 -19
0 -4 17 -5 17 -6 0 -1 -11 -6 -15 -13 -11 -7 5 -9 2 -5 -8 4 -12 0 -14 -16
-10 -12 3 -25 10 -28 15 -4 5 -16 0 -27 -11 l-21 -21 -7 32 c-3 17 -14 37 -23
44 -14 11 -14 13 -1 14 8 1 18 1 23 0 16 -2 6 45 -12 59 -11 7 -17 18 -14 24
4 6 -1 5 -10 -3 -10 -8 -21 -10 -25 -6 -4 4 -1 10 6 12 6 3 9 10 5 16 -4 7 0
8 11 4 10 -4 15 -3 11 3 -3 6 2 10 12 11 11 0 13 3 5 6 -16 6 -46 63 -33 63 5
0 13 -4 16 -10 3 -5 12 -10 18 -10 7 0 4 5 -5 11 -21 12 -24 39 -5 39 8 0 14
6 14 13 0 9 -10 13 -24 11 -12 -1 -23 1 -23 6 0 5 -3 17 -6 27 -4 13 -3 14 3
5 8 -10 12 -10 23 2 10 13 9 17 -4 22 -18 7 -16 41 5 56 10 7 0 8 -33 5 -27
-3 -48 -1 -48 4 0 9 15 13 38 10 8 -1 23 5 33 15 15 14 17 20 6 32 -6 9 -7 13
-1 9 6 -3 20 0 30 8 10 8 28 14 39 15 16 0 17 -2 5 -10 -8 -5 -12 -12 -9 -15
4 -3 12 1 19 10 10 12 9 16 -4 21 -20 8 -21 24 -1 24 8 0 15 4 15 9 0 17 -29
33 -50 26 -16 -5 -20 -2 -20 14 0 11 5 23 10 26 6 4 4 12 -5 21 -8 9 -15 21
-15 27 0 8 4 7 12 -1 16 -16 31 -15 23 1 -4 6 1 3 11 -8 12 -15 15 -16 11 -3
-8 22 3 31 20 16 11 -8 12 -7 7 6 -3 9 -14 16 -23 17 -10 0 -12 2 -3 6 7 3 20
-1 29 -9 14 -11 16 -11 11 2 -2 8 -19 18 -38 21 -18 4 -35 11 -39 17 -5 9 -43
16 -123 25 -19 2 -28 -1 -28 -11 0 -12 -3 -12 -15 -2 -8 7 -15 9 -15 5 0 -5
-9 0 -20 10 -13 11 -29 16 -47 12 -18 -3 -31 0 -40 11 -11 16 -12 16 -13 0 0
-18 -30 -26 -30 -9 0 4 -11 6 -25 3 -15 -2 -25 0 -25 7 0 6 5 11 12 11 9 0 9
3 0 12 -21 21 -13 27 26 22 20 -2 31 -2 24 2 -6 3 -9 10 -6 15 4 6 11 6 19 -1
8 -7 20 -7 36 -1 19 8 20 10 5 10 -14 1 -17 6 -12 24 3 12 6 26 6 31 0 5 11
-1 26 -14 21 -20 27 -22 34 -10 5 8 6 18 3 24 -4 5 1 7 10 3 9 -3 19 -1 23 5
4 7 3 8 -4 4 -7 -4 -12 -2 -12 4 0 7 7 9 16 6 9 -3 20 -6 25 -6 6 0 8 -4 5 -9
-8 -12 24 -37 32 -25 4 5 18 10 32 11 47 2 134 29 138 43 3 7 0 10 -7 6 -6 -4
-11 -3 -11 2 0 9 23 22 37 22 3 0 3 -9 0 -20 -6 -23 11 -27 19 -5 4 8 15 15
27 15 26 0 134 38 165 58 12 8 22 11 22 8 0 -4 9 -2 19 4 11 5 22 7 25 2 2 -4
18 -9 35 -10 21 -2 33 3 40 17 15 28 54 17 46 -13 -5 -17 -4 -18 4 -6 6 8 11
11 11 6 0 -5 7 -3 15 4 11 9 15 9 15 1 0 -7 5 -9 10 -6 6 4 7 11 4 17 -4 6 -2
8 4 4 7 -4 8 -17 2 -35 -7 -25 -5 -30 12 -34 11 -3 17 -10 14 -15 -3 -5 1 -15
9 -22 11 -9 15 -9 15 -1 0 7 4 10 9 7 5 -4 12 0 14 6 3 7 6 -7 6 -32 1 -25 6
-52 11 -60 9 -13 12 -12 25 4 8 11 15 16 15 10 0 -5 5 -2 11 6 8 12 9 10 4 -7
-4 -14 -2 -23 4 -23 6 0 11 5 11 11 0 8 6 7 18 -2 15 -12 16 -12 6 1 -14 20
-16 67 -4 75 6 3 10 12 10 18 0 7 -4 6 -10 -3 -15 -23 -12 -5 6 37 9 21 21 49
27 63 5 14 13 32 18 41 26 54 34 223 13 316 -10 46 -26 83 -36 83 -5 0 -6 5
-3 10 3 6 2 10 -4 10 -5 0 -12 9 -16 19 -3 11 -14 23 -24 26 -10 3 -24 18 -32
33 -8 15 -20 31 -26 35 -7 4 -13 14 -13 22 0 7 -10 22 -22 32 -31 25 -64 73
-72 103 -3 14 -3 19 0 13 11 -25 23 -12 17 19 -4 22 -3 29 5 24 7 -4 12 -2 12
4 0 8 13 10 39 5 27 -4 51 -2 73 9 18 8 62 22 98 31 87 21 161 56 194 91 36
40 63 117 86 248 24 140 34 174 61 202 18 19 21 32 17 78 -3 31 -7 59 -11 62
-28 28 -625 54 -786 33z m442 -16 c-18 -2 -48 -2 -65 0 -18 2 -4 4 32 4 36 0
50 -2 33 -4z m-253 -21 c0 -13 -12 -22 -22 -16 -10 6 -1 24 13 24 5 0 9 -4 9
-8z m128 -11 c3 -8 -1 -12 -9 -9 -7 2 -15 10 -17 17 -3 8 1 12 9 9 7 -2 15
-10 17 -17z m95 12 c-13 -2 -35 -2 -50 0 -16 2 -5 4 22 4 28 0 40 -2 28 -4z
m340 0 c-7 -2 -19 -2 -25 0 -7 3 -2 5 12 5 14 0 19 -2 13 -5z m-172 -29 c32
-16 71 -55 64 -62 -3 -3 -13 4 -22 15 -30 33 -50 35 -58 5 -3 -15 -8 -34 -11
-43 -5 -19 62 -44 70 -25 3 7 8 6 15 -4 6 -8 16 -15 23 -15 33 0 32 -163 -3
-289 -22 -83 -58 -132 -113 -157 -65 -28 -184 -52 -268 -53 -43 -1 -78 -5 -78
-10 0 -5 -7 -3 -15 4 -11 9 -36 11 -83 7 -37 -3 -59 -3 -49 1 12 5 -12 12 -69
21 -78 12 -90 17 -115 46 -16 18 -40 36 -53 39 -26 6 -60 61 -49 79 3 6 1 7
-6 3 -6 -4 -14 0 -18 11 -4 10 -10 20 -13 23 -4 3 -19 40 -33 83 -30 87 -35
172 -13 216 17 31 62 65 76 56 5 -3 11 -1 15 5 4 6 11 7 17 4 6 -4 16 0 22 9
17 22 81 30 96 12 9 -11 7 -19 -9 -36 -12 -13 -21 -31 -21 -41 0 -10 -4 -18
-10 -18 -5 0 -10 -4 -10 -9 0 -6 -20 -31 -45 -57 -24 -26 -43 -50 -41 -53 2
-3 -5 -19 -15 -36 -43 -68 -43 -72 -23 -116 10 -23 20 -36 22 -30 4 13 72 15
72 2 0 -5 11 -12 25 -15 14 -4 25 -13 25 -21 0 -8 9 -15 20 -15 11 0 20 4 20
8 0 5 7 9 15 9 8 0 15 -4 15 -9 0 -4 12 -8 27 -8 25 0 26 -1 8 -14 -16 -12
-17 -16 -6 -30 7 -9 20 -16 27 -16 20 0 94 -33 94 -42 0 -5 9 -8 20 -8 11 0
20 5 20 11 0 5 5 7 10 4 6 -3 10 1 10 9 0 8 5 18 11 22 9 5 10 -1 5 -21 l-7
-27 27 21 c19 15 30 18 34 11 12 -19 44 -7 68 24 12 17 22 25 22 18 0 -6 7 -9
16 -5 8 3 13 12 10 19 -3 7 3 16 14 19 17 6 35 33 26 42 -2 2 -39 0 -82 -6
-86 -12 -172 -7 -188 9 -5 5 -18 10 -28 10 -11 0 -18 7 -18 19 0 15 7 18 39
15 29 -2 38 1 35 11 -7 17 10 21 91 20 39 0 73 3 76 8 3 4 21 9 40 10 19 1 37
6 40 11 4 5 22 -2 40 -15 19 -13 56 -31 84 -41 l50 -16 -30 24 c-16 13 -42 26
-57 29 -15 4 -31 11 -34 16 -8 14 -181 98 -188 92 -2 -3 -19 2 -37 11 -18 9
-37 16 -43 16 -6 0 -20 7 -31 16 -17 13 -18 16 -5 24 8 5 23 7 34 4 13 -4 17
-2 14 7 -3 8 -19 15 -36 17 -21 2 -33 10 -38 25 -4 12 -2 23 5 25 15 5 14 39
-1 45 -8 4 -7 6 3 6 9 1 23 8 30 17 11 13 24 15 69 9 30 -3 85 -6 123 -5 66 1
78 -5 55 -28 -9 -9 -6 -12 14 -12 15 0 29 -7 32 -16 4 -9 9 -14 13 -11 3 4 13
2 23 -3 12 -6 17 -5 17 6 0 7 -8 14 -18 14 -17 0 -33 36 -23 52 3 4 14 8 24 8
31 0 33 18 3 23 -16 2 -6 2 21 0 27 -2 62 -11 77 -19z m-456 -3 c3 -5 1 -12
-4 -15 -5 -3 -11 1 -15 9 -6 16 9 21 19 6z m-509 -71 c-5 -33 -12 -60 -15 -60
-8 0 -13 99 -6 110 4 6 12 10 19 10 9 0 10 -14 2 -60z m-51 30 c-3 -5 -10 -10
-16 -10 -5 0 -9 5 -9 10 0 6 7 10 16 10 8 0 12 -4 9 -10z m-340 -10 c14 -5 24
-13 22 -17 -3 -5 11 -9 31 -11 45 -3 52 -10 45 -44 -3 -18 -14 -30 -33 -36
-25 -9 -27 -8 -23 11 3 13 1 18 -4 11 -13 -18 -51 -23 -90 -12 -26 7 -38 7
-43 -2 -10 -16 -16 -4 -25 43 -7 35 -6 37 19 37 18 0 24 4 20 15 -7 18 39 21
81 5z m-445 -76 c0 -8 -4 -14 -9 -14 -11 0 -22 26 -14 34 9 9 23 -3 23 -20z
m1158 -6 c-2 -6 -10 -14 -16 -16 -7 -2 -10 2 -6 12 7 18 28 22 22 4z m-458
-41 c-13 -7 -35 -30 -48 -52 -22 -38 -23 -38 -17 -10 6 34 47 75 73 75 12 0
10 -4 -8 -13z m94 4 c4 -5 -3 -7 -14 -4 -23 6 -26 13 -6 13 8 0 17 -4 20 -9z
m-1409 -50 c4 -23 2 -48 -5 -60 -7 -14 -7 -21 0 -21 5 0 10 -7 10 -16 0 -8 -4
-12 -10 -9 -5 3 -10 -1 -10 -10 0 -9 4 -13 10 -10 5 3 8 0 5 -7 -2 -7 -6 -31
-9 -53 -3 -22 -9 -66 -14 -97 -7 -44 -6 -58 4 -58 7 0 10 -8 7 -20 -3 -11 -9
-17 -14 -14 -5 3 -9 -11 -9 -31 0 -20 -8 -50 -17 -66 -16 -26 -16 -31 -3 -39
12 -8 10 -10 -9 -10 -21 0 -23 3 -17 33 4 17 11 104 17 192 5 88 11 171 13
185 6 56 29 150 36 150 5 0 11 -18 15 -39z m965 20 c32 -8 36 -46 6 -49 -11 0
-23 3 -26 7 -3 5 -21 10 -40 12 -33 3 -49 14 -50 32 0 8 74 7 110 -2z m125
-41 c-10 -16 -41 -11 -59 9 -17 19 -17 20 16 23 33 3 55 -13 43 -32z m-1306
-16 c6 -15 9 -29 7 -32 -3 -2 -11 7 -17 21 -7 15 -16 24 -22 20 -6 -3 -7 -1
-3 5 11 19 22 14 35 -14z m1664 -23 c20 -26 37 -53 37 -60 0 -6 4 -19 10 -29
5 -9 30 -60 56 -112 26 -52 55 -111 65 -130 11 -22 14 -39 8 -44 -13 -15 -11
-42 5 -55 10 -8 15 -9 18 -1 5 17 109 20 125 4 7 -7 13 -16 13 -20 0 -4 12
-33 28 -64 22 -47 31 -57 50 -55 23 2 82 -46 82 -66 0 -5 5 -9 10 -9 6 0 10
-6 10 -13 0 -7 14 -26 30 -42 17 -16 30 -25 30 -20 0 5 7 -1 16 -13 9 -13 13
-29 11 -36 -3 -8 3 -16 15 -19 11 -3 17 -10 13 -16 -3 -6 1 -14 10 -17 9 -4
14 -12 11 -19 -3 -8 2 -16 10 -19 10 -4 12 -2 8 6 -5 7 -3 8 6 3 8 -5 10 -21
7 -46 -3 -22 -1 -37 4 -33 11 7 59 -44 59 -64 0 -10 -8 -13 -26 -9 -18 3 -24
1 -20 -9 7 -19 -4 -17 -21 4 -13 16 -14 15 -8 -6 5 -18 2 -25 -13 -29 -14 -3
-18 -11 -15 -24 4 -15 0 -19 -18 -20 -13 -1 -28 -1 -33 0 -5 1 -5 -4 1 -11 6
-7 7 -22 3 -32 -6 -19 -7 -18 -13 3 -3 13 -10 20 -16 16 -6 -3 -11 -1 -11 4 0
6 5 11 11 11 5 0 7 5 4 10 -11 18 -34 11 -30 -10 5 -28 -5 -31 -66 -16 -30 7
-60 11 -66 9 -6 -2 -14 1 -18 6 -3 6 -34 11 -67 11 l-61 0 27 -25 c30 -28 32
-38 11 -55 -8 -7 -15 -25 -15 -40 0 -50 -87 -66 -146 -28 -7 5 -14 1 -18 -7
-4 -10 -20 -15 -51 -15 -25 0 -45 -4 -45 -9 0 -5 -28 -3 -62 5 -40 8 -94 10
-147 7 -72 -5 -86 -4 -97 11 -8 11 -14 13 -19 7 -7 -12 -65 -15 -65 -3 0 4 -4
13 -9 21 -7 11 -13 10 -33 -3 -21 -14 -30 -14 -77 -1 -61 16 -73 28 -64 65 9
37 14 43 26 31 16 -16 27 -13 27 8 0 37 25 46 93 32 34 -6 76 -11 92 -10 17 1
79 -2 139 -6 82 -6 107 -5 102 3 -5 8 1 12 16 13 23 1 23 1 -2 8 l-24 7 22 22
c27 27 27 28 1 35 -30 8 -16 23 28 32 67 12 178 75 133 75 -5 0 -10 7 -10 15
0 18 46 21 53 3 3 -8 6 -6 6 5 1 19 51 26 51 7 0 -7 6 -7 18 -2 32 17 74 24
67 11 -5 -8 -1 -9 13 -5 16 5 22 1 28 -16 l7 -23 9 24 c7 20 10 22 25 10 20
-17 16 -17 36 0 24 19 21 29 -8 23 -20 -3 -25 0 -25 17 0 11 -4 21 -10 21 -5
0 -9 -3 -7 -7 2 -9 -6 -13 -25 -13 -9 0 -8 3 2 10 11 7 9 11 -12 19 -15 5 -30
17 -35 26 -8 14 -11 13 -29 -3 -17 -16 -22 -17 -33 -5 -9 10 -25 13 -55 8 -31
-5 -38 -4 -26 5 12 9 11 10 -7 5 -13 -4 -23 -2 -23 4 0 13 37 24 80 23 25 0
30 2 16 7 -15 6 -9 11 33 29 66 29 71 57 9 47 -49 -8 -122 -48 -111 -60 5 -4
-2 -4 -15 0 -13 3 -28 2 -35 -3 -7 -5 -25 -12 -41 -16 -16 -4 -43 -18 -61 -32
-37 -28 -65 -31 -65 -6 0 13 -2 14 -9 4 -6 -11 -10 -10 -15 4 -7 19 14 74 29
74 5 0 -1 7 -14 17 l-24 16 23 19 c20 16 20 18 4 18 -12 0 -15 3 -8 8 7 5 3
14 -12 29 -13 13 -24 18 -26 11 -3 -7 -13 -5 -31 7 -39 25 -53 89 -24 108 8 4
9 10 2 15 -17 12 -16 32 1 32 10 0 13 6 10 18 -3 9 -7 31 -9 48 -4 27 0 32 28
43 35 12 45 32 45 89 0 18 4 31 9 27 6 -3 13 16 16 42 4 27 11 61 16 77 6 19
6 33 -1 40 -5 5 -10 25 -10 43 0 49 28 43 73 -16z m212 -1 c-10 -11 -20 -18
-23 -15 -3 3 3 14 13 25 10 11 20 18 23 15 3 -3 -3 -14 -13 -25z m-514 3 c13
-15 12 -15 -11 -3 -34 17 -36 20 -18 20 9 0 22 -7 29 -17z m819 13 c0 -3 -4
-8 -10 -11 -5 -3 -10 -1 -10 4 0 6 5 11 10 11 6 0 10 -2 10 -4z m93 -3 c35 -6
26 -23 -11 -19 -15 2 -35 4 -45 5 -10 0 -16 5 -13 9 6 10 31 12 69 5z m-1240
-10 c-7 -2 -19 -2 -25 0 -7 3 -2 5 12 5 14 0 19 -2 13 -5z m92 -3 c3 -5 -3
-10 -14 -10 -11 0 -23 5 -26 10 -3 6 3 10 14 10 11 0 23 -4 26 -10z m-788 -22
c-3 -8 -6 -5 -6 6 -1 11 2 17 5 13 3 -3 4 -12 1 -19z m60 -40 c6 -68 39 -161
72 -209 39 -56 191 -118 191 -78 0 6 -7 9 -15 5 -16 -6 -16 14 0 26 6 4 2 8
-8 8 -10 0 -16 4 -12 10 3 5 12 7 20 3 8 -3 15 0 15 6 0 6 -7 11 -15 11 -8 0
-15 5 -15 11 0 5 5 7 10 4 6 -3 14 4 19 17 l10 23 0 -23 c1 -14 5 -21 12 -16
8 4 9 -3 4 -26 l-7 -33 30 22 c36 26 42 26 43 4 0 -11 3 -13 6 -5 2 6 9 12 14
12 6 0 8 -4 5 -9 -4 -5 -3 -17 0 -26 6 -14 8 -14 27 2 18 16 20 16 14 1 -3 -9
-1 -19 6 -22 11 -4 -17 -10 -35 -7 -4 0 -10 -8 -13 -19 -4 -11 -11 -20 -18
-20 -8 0 -8 3 1 12 15 15 16 38 1 38 -6 0 -13 -10 -16 -21 -6 -20 -10 -21 -77
-14 -178 17 -267 114 -283 310 -3 39 -3 67 1 63 4 -3 10 -30 13 -60z m-39 -43
c0 -16 -2 -15 -8 5 -4 14 -8 34 -8 45 0 16 2 15 8 -5 4 -14 8 -34 8 -45z
m1822 25 c0 -5 -2 -10 -4 -10 -3 0 -8 5 -11 10 -3 6 -1 10 4 10 6 0 11 -4 11
-10z m-2109 -15 c8 5 11 -4 24 -72 4 -21 3 -24 -5 -13 -5 8 -10 25 -10 36 0
12 -7 27 -15 34 -8 7 -15 18 -14 24 0 7 2 6 6 -2 2 -6 9 -10 14 -7z m2034 -15
c3 -5 -1 -10 -10 -10 -9 0 -13 5 -10 10 3 6 8 10 10 10 2 0 7 -4 10 -10z
m-1680 -186 c9 -15 12 -23 5 -19 -17 11 -57 105 -65 151 -4 25 3 13 19 -34 13
-40 32 -84 41 -98z m-437 81 c-14 -31 -21 -26 -12 9 3 14 10 23 15 21 4 -3 3
-17 -3 -30z m2088 -1 c-5 -14 -9 -15 -19 -5 -9 9 -9 14 3 21 18 11 24 6 16
-16z m-1574 -18 c7 4 8 2 4 -5 -9 -13 -26 -5 -25 12 0 9 2 8 6 -1 2 -6 10 -9
15 -6z m-542 -75 c-12 -46 -24 -57 -14 -13 11 50 16 64 21 59 2 -3 -1 -23 -7
-46z m585 29 c3 -5 -1 -10 -10 -10 -9 0 -13 5 -10 10 3 6 8 10 10 10 2 0 7 -4
10 -10z m305 -40 c0 -5 -4 -10 -10 -10 -5 0 -10 5 -10 10 0 6 5 10 10 10 6 0
10 -4 10 -10z m-913 -72 c-3 -8 -6 -5 -6 6 -1 11 2 17 5 13 3 -3 4 -12 1 -19z
m883 6 c0 -2 -9 -4 -21 -4 -11 0 -18 4 -14 10 5 8 35 3 35 -6z m-893 -56 c-3
-7 -5 -2 -5 12 0 14 2 19 5 13 2 -7 2 -19 0 -25z m698 -28 c-7 -22 22 -21 39
1 12 16 42 14 65 -5 12 -8 13 -8 7 2 -12 20 7 13 37 -13 20 -18 26 -31 22 -45
-3 -10 -12 -17 -19 -14 -13 5 -30 -21 -23 -34 2 -4 -4 -15 -15 -24 -20 -20
-25 -10 -5 12 6 7 -2 3 -19 -11 -18 -14 -29 -30 -27 -39 4 -12 3 -13 -5 -1 -6
8 -17 11 -25 8 -13 -5 -14 0 -7 25 8 25 7 29 -6 24 -9 -3 -18 -6 -20 -6 -2 0
-4 -6 -4 -13 0 -8 -6 -14 -13 -14 -8 0 -12 11 -11 29 2 30 -5 35 -24 16 -9 -9
-12 -8 -12 8 0 16 -2 17 -10 4 -7 -11 -8 -6 -4 18 4 21 3 32 -5 32 -6 0 -11 5
-11 10 0 6 7 10 15 10 8 0 15 6 15 14 0 16 9 20 45 22 21 2 25 -2 20 -16z
m-480 -18 c0 -18 -20 -15 -23 4 -3 10 1 15 10 12 7 -3 13 -10 13 -16z m-88
-289 c-3 -10 -5 -4 -5 12 0 17 2 24 5 18 2 -7 2 -21 0 -30z m1773 -21 c0 -10
-46 -10 -56 1 -4 4 7 7 24 7 18 0 32 -4 32 -8z m114 -7 c3 -8 12 -12 21 -9 8
3 15 1 15 -5 0 -14 -77 -15 -85 -1 -4 7 -13 6 -27 -1 -16 -9 -19 -8 -16 3 3 7
16 13 31 13 14 1 29 4 33 8 11 11 21 8 28 -8z m476 -215 c0 -5 -7 -10 -16 -10
-8 0 -12 5 -9 10 3 6 10 10 16 10 5 0 9 -4 9 -10z m-20 -35 c-7 -9 -15 -13
-17 -11 -7 7 7 26 19 26 6 0 6 -6 -2 -15z m-90 -45 c0 -5 -2 -10 -4 -10 -3 0
-8 5 -11 10 -3 6 -1 10 4 10 6 0 11 -4 11 -10z m-24 -46 c1 -9 0 -13 -4 -10
-3 4 -7 14 -8 22 -1 9 0 13 4 10 3 -4 7 -14 8 -22z m91 4 c-3 -8 -6 -5 -6 6
-1 11 2 17 5 13 3 -3 4 -12 1 -19z m-1692 -77 c-3 -6 -11 -11 -16 -11 -5 0 -4
6 3 14 14 16 24 13 13 -3z m585 -71 c0 -5 -2 -10 -4 -10 -3 0 -8 5 -11 10 -3
6 -1 10 4 10 6 0 11 -4 11 -10z m53 -7 c-7 -2 -19 -2 -25 0 -7 3 -2 5 12 5 14
0 19 -2 13 -5z m87 -85 c0 -4 -7 -8 -15 -8 -8 0 -15 4 -15 8 0 5 7 9 15 9 8 0
15 -4 15 -9z m280 -238 c6 -11 7 -20 2 -20 -6 0 -12 9 -15 20 -3 11 -3 20 -1
20 2 0 8 -9 14 -20z m-46 -268 c3 -5 -1 -9 -9 -9 -8 0 -12 4 -9 9 3 4 7 8 9 8
2 0 6 -4 9 -8z m-37 -44 c-3 -8 -6 -5 -6 6 -1 11 2 17 5 13 3 -3 4 -12 1 -19z
m6 -313 c-3 -9 -8 -14 -10 -11 -3 3 -2 9 2 15 9 16 15 13 8 -4z m-32 -18 c-13
-13 -26 -3 -16 12 3 6 11 8 17 5 6 -4 6 -10 -1 -17z m119 -8 c0 -12 -27 -11
-35 1 -11 17 5 32 21 19 8 -6 14 -15 14 -20z m74 -17 c2 -4 -4 -9 -15 -9 -10
-1 -19 2 -19 8 0 11 27 12 34 1z m42 -68 c-3 -13 -9 -31 -15 -41 -8 -14 -10
-8 -11 29 0 38 3 46 15 42 9 -4 13 -15 11 -30z m31 4 c-3 -8 -6 -5 -6 6 -1 11
2 17 5 13 3 -3 4 -12 1 -19z m-230 -100 c-3 -7 -5 -2 -5 12 0 14 2 19 5 13 2
-7 2 -19 0 -25z m78 22 c3 -5 1 -10 -4 -10 -6 0 -11 5 -11 10 0 6 2 10 4 10 3
0 8 -4 11 -10z m-49 -47 c-10 -10 -19 5 -10 18 6 11 8 11 12 0 2 -7 1 -15 -2
-18z m138 -53 c10 -13 9 -13 -6 -1 -21 16 -23 9 -7 -21 9 -17 13 -18 20 -7 6
9 9 10 9 2 0 -22 -19 -23 -34 -2 -8 12 -19 18 -25 15 -5 -4 -13 -1 -17 5 -5 8
-3 9 6 4 9 -6 10 -2 5 15 -5 15 -3 20 3 16 6 -3 14 -1 18 6 6 9 9 8 12 -2 3
-8 10 -22 16 -30z m-84 21 c0 -5 -7 -12 -16 -15 -14 -5 -15 -4 -4 9 14 17 20
19 20 6z"/>
<path d="M7381 5874 c0 -11 3 -14 6 -6 3 7 2 16 -1 19 -3 4 -6 -2 -5 -13z"/>
<path d="M7139 5720 c24 -11 71 -41 104 -65 33 -25 61 -44 64 -42 9 10 -11 35
-55 67 -26 19 -50 39 -53 44 -4 4 -28 10 -55 12 l-49 4 44 -20z"/>
<path d="M7211 5528 c-19 -12 -30 -23 -24 -25 14 -5 83 26 83 37 0 16 -22 11
-59 -12z"/>
<path d="M7188 5293 c7 -3 16 -2 19 1 4 3 -2 6 -13 5 -11 0 -14 -3 -6 -6z"/>
<path d="M7113 5283 c9 -2 25 -2 35 0 9 3 1 5 -18 5 -19 0 -27 -2 -17 -5z"/>
<path d="M6755 4840 c3 -5 13 -10 21 -10 8 0 12 5 9 10 -3 6 -13 10 -21 10 -8
0 -12 -4 -9 -10z"/>
<path d="M6850 4826 c0 -2 8 -10 18 -17 15 -13 16 -12 3 4 -13 16 -21 21 -21
13z"/>
<path d="M6920 4756 c0 -2 7 -6 15 -10 8 -3 15 -1 15 4 0 6 -7 10 -15 10 -8 0
-15 -2 -15 -4z"/>
<path d="M6880 4740 c0 -5 4 -10 9 -10 6 0 13 5 16 10 3 6 -1 10 -9 10 -9 0
-16 -4 -16 -10z"/>
<path d="M6740 4725 c0 -8 5 -15 10 -15 6 0 10 7 10 15 0 8 -4 15 -10 15 -5 0
-10 -7 -10 -15z"/>
<path d="M6955 4729 c-11 -17 1 -21 15 -4 8 9 8 15 2 15 -6 0 -14 -5 -17 -11z"/>
<path d="M7071 4733 c0 -7 -9 -13 -18 -13 -17 -1 -17 -1 0 -11 22 -13 30 -7
24 18 -3 10 -5 12 -6 6z"/>
<path d="M6857 4706 c-3 -8 -3 -17 0 -20 9 -9 34 15 27 25 -8 13 -21 11 -27
-5z"/>
<path d="M6920 4709 c0 -5 5 -7 10 -4 6 3 10 8 10 11 0 2 -4 4 -10 4 -5 0 -10
-5 -10 -11z"/>
<path d="M7141 4664 c0 -11 3 -14 6 -6 3 7 2 16 -1 19 -3 4 -6 -2 -5 -13z"/>
<path d="M7000 4656 c0 -2 7 -7 16 -10 8 -3 12 -2 9 4 -6 10 -25 14 -25 6z"/>
<path d="M5500 5260 c-9 -6 -10 -10 -3 -10 6 0 15 5 18 10 8 12 4 12 -15 0z"/>
<path d="M5360 5089 c0 -5 5 -7 10 -4 6 3 10 8 10 11 0 2 -4 4 -10 4 -5 0 -10
-5 -10 -11z"/>
<path d="M5523 5075 c0 -14 3 -22 8 -19 5 3 9 11 9 19 0 8 -4 16 -9 19 -5 3
-8 -5 -8 -19z"/>
<path d="M7666 5722 c41 -38 44 -48 30 -109 -4 -18 -3 -40 3 -50 8 -14 10 -7
11 35 0 54 12 66 35 35 11 -15 14 -15 26 -2 17 17 19 71 3 76 -7 2 -19 -3 -28
-12 -15 -15 -16 -15 -16 4 0 11 -5 23 -12 27 -7 5 -8 3 -3 -5 5 -9 2 -9 -14 0
-15 10 -17 16 -8 22 7 5 4 6 -10 2 -12 -3 -24 -1 -28 5 -3 5 -12 10 -18 10 -7
0 6 -17 29 -38z"/>
<path d="M7859 5623 c-9 -2 -24 -21 -33 -41 -17 -38 -17 -120 0 -286 l6 -60
20 40 c22 45 35 125 41 242 4 86 -5 112 -34 105z"/>
<path d="M7695 5323 c2 -10 9 -58 16 -106 7 -48 16 -90 21 -93 4 -3 8 -22 8
-43 0 -39 7 -54 20 -46 5 3 4 21 0 40 -4 19 -4 53 1 74 6 27 5 49 -3 68 -7 15
-13 33 -14 38 -1 6 -3 13 -4 18 -1 4 -3 10 -4 15 -3 13 -31 52 -37 52 -4 0 -6
-8 -4 -17z"/>
<path d="M7773 4730 c-7 -17 -7 -32 -2 -36 15 -9 29 5 22 23 -4 10 -2 14 4 10
7 -5 9 0 6 13 -7 28 -17 25 -30 -10z"/>
<path d="M7770 4665 c-6 -51 -5 -75 1 -75 14 0 19 35 10 65 -7 23 -10 25 -11
10z"/>
<path d="M7670 4279 c0 -5 5 -7 10 -4 6 3 10 8 10 11 0 2 -4 4 -10 4 -5 0 -10
-5 -10 -11z"/>
<path d="M7672 4243 c2 -11 -2 -17 -10 -15 -8 1 -11 -2 -7 -8 10 -16 35 8 28
26 -7 20 -14 18 -11 -3z"/>
<path d="M7210 4160 c0 -5 5 -10 11 -10 5 0 7 5 4 10 -3 6 -8 10 -11 10 -2 0
-4 -4 -4 -10z"/>
<path d="M7130 4131 c0 -9 30 -24 36 -18 2 1 -6 8 -16 15 -11 7 -20 8 -20 3z"/>
<path d="M7441 4043 c0 -4 4 -17 9 -28 8 -19 9 -19 9 2 1 12 -3 25 -9 28 -5 3
-10 3 -9 -2z"/>
<path d="M7256 4012 c-3 -5 1 -9 9 -9 8 0 15 4 15 9 0 4 -4 8 -9 8 -6 0 -12
-4 -15 -8z"/>
<path d="M7266 3961 c9 -17 17 -31 19 -31 9 0 -13 54 -23 58 -7 2 -6 -8 4 -27z"/>
<path d="M6981 3951 c-9 -6 -10 -11 -2 -15 6 -4 11 -2 11 4 0 6 5 8 12 4 7 -4
8 -3 4 4 -8 14 -7 14 -25 3z"/>
<path d="M7316 3945 c4 -8 11 -15 16 -15 6 0 5 6 -2 15 -7 8 -14 15 -16 15 -2
0 -1 -7 2 -15z"/>
<path d="M7204 3921 c4 -5 3 -11 -1 -14 -5 -2 -2 -2 6 0 9 2 11 -2 7 -14 -4
-10 -4 -14 0 -10 4 4 14 1 22 -6 12 -9 12 -6 -1 14 -10 14 -14 29 -10 32 3 4
-1 7 -11 7 -9 0 -15 -4 -12 -9z"/>
<path d="M7392 3886 c7 -8 15 -12 17 -11 5 6 -10 25 -20 25 -5 0 -4 -6 3 -14z"/>
<path d="M7130 3886 c0 -2 8 -10 18 -17 15 -13 16 -12 3 4 -13 16 -21 21 -21
13z"/>
<path d="M7266 3877 c3 -10 9 -15 12 -12 3 3 0 11 -7 18 -10 9 -11 8 -5 -6z"/>
<path d="M6627 3869 c7 -7 15 -10 18 -7 3 3 -2 9 -12 12 -14 6 -15 5 -6 -5z"/>
<path d="M6915 3840 c3 -5 8 -10 11 -10 2 0 4 5 4 10 0 6 -5 10 -11 10 -5 0
-7 -4 -4 -10z"/>
<path d="M6950 3800 c0 -5 5 -10 11 -10 5 0 7 5 4 10 -3 6 -8 10 -11 10 -2 0
-4 -4 -4 -10z"/>
<path d="M7082 3781 c-10 -6 -10 -10 2 -21 9 -7 13 -17 9 -24 -3 -6 0 -5 8 3
11 11 11 14 1 18 -10 4 -10 8 -1 19 13 15 2 19 -19 5z"/>
<path d="M6862 3766 c7 -8 15 -12 17 -11 5 6 -10 25 -20 25 -5 0 -4 -6 3 -14z"/>
<path d="M6765 3740 c4 -7 1 -16 -6 -21 -10 -6 -6 -9 14 -9 32 0 35 10 6 28
-14 9 -19 10 -14 2z"/>
<path d="M6987 3723 c-4 -3 -7 -13 -6 -22 0 -12 2 -11 8 3 7 19 8 19 27 -2 50
-54 53 -63 24 -55 -11 3 -17 10 -14 17 3 6 -2 2 -10 -8 -18 -23 -20 -36 -6
-36 18 0 25 5 22 14 -2 5 4 4 12 -4 11 -8 16 -9 16 -1 0 6 5 10 11 9 25 -6 18
19 -8 31 l-28 13 23 12 c17 9 20 14 10 24 -7 7 -18 12 -26 12 -12 0 -12 -3 -1
-17 13 -17 13 -17 -13 0 -31 19 -32 20 -41 10z"/>
<path d="M7120 3726 c0 -2 7 -9 15 -16 9 -7 15 -8 15 -2 0 5 -7 12 -15 16 -8
3 -15 4 -15 2z"/>
<path d="M7095 3710 c3 -5 11 -10 16 -10 6 0 7 5 4 10 -3 6 -11 10 -16 10 -6
0 -7 -4 -4 -10z"/>
<path d="M6805 3665 c0 -13 3 -21 8 -18 4 2 7 0 7 -4 0 -5 9 -9 20 -10 11 -1
20 2 20 8 0 5 -3 8 -7 8 -21 -3 -33 2 -33 15 0 8 -3 17 -7 19 -5 3 -8 -5 -8
-18z"/>
<path d="M6940 3663 c0 -15 18 -35 23 -27 3 5 -1 15 -9 22 -8 7 -14 9 -14 5z"/>
<path d="M6965 3620 c-3 -5 -1 -10 5 -10 7 0 10 -6 7 -14 -3 -8 5 -18 19 -25
14 -6 23 -7 20 -2 -4 5 -1 11 6 14 7 2 5 3 -4 2 -10 -2 -15 2 -11 10 6 17 -33
40 -42 25z"/>
<path d="M6840 3596 c0 -8 4 -17 9 -20 5 -4 7 3 4 14 -6 23 -13 26 -13 6z"/>
<path d="M7040 3606 c0 -2 7 -7 16 -10 8 -3 12 -2 9 4 -6 10 -25 14 -25 6z"/>
<path d="M7311 3591 c-8 -5 -9 -11 -3 -15 5 -3 12 1 16 9 6 17 6 18 -13 6z"/>
<path d="M6797 3559 c7 -7 15 -10 18 -7 3 3 -2 9 -12 12 -14 6 -15 5 -6 -5z"/>
<path d="M6980 3557 c0 -2 6 -10 14 -16 11 -9 16 -9 22 1 4 7 4 10 -1 6 -4 -4
-14 -3 -22 3 -7 6 -13 9 -13 6z"/>
<path d="M7290 3550 c-9 -6 -10 -10 -3 -10 6 0 15 5 18 10 8 12 4 12 -15 0z"/>
<path d="M6970 3523 c0 -15 -2 -16 -10 -3 -6 9 -10 10 -10 3 0 -19 17 -24 29
-9 8 10 9 16 1 21 -5 3 -10 -2 -10 -12z"/>
<path d="M7070 3536 c0 -2 8 -10 18 -17 15 -13 16 -12 3 4 -13 16 -21 21 -21
13z"/>
<path d="M6566 3435 c-3 -8 -1 -15 4 -15 6 0 10 7 10 15 0 8 -2 15 -4 15 -2 0
-6 -7 -10 -15z"/>
<path d="M6510 3391 c0 -6 4 -13 10 -16 6 -3 7 1 4 9 -7 18 -14 21 -14 7z"/>
<path d="M6571 3374 c0 -11 3 -14 6 -6 3 7 2 16 -1 19 -3 4 -6 -2 -5 -13z"/>
<path d="M7070 3366 c7 -7 14 -6 21 1 9 9 7 12 -9 10 -14 -1 -18 -5 -12 -11z"/>
<path d="M6783 3342 c1 -14 5 -18 11 -12 7 7 6 14 -1 21 -9 9 -12 7 -10 -9z"/>
<path d="M7000 3280 c-8 -5 -10 -10 -5 -10 6 0 17 5 25 10 8 5 11 10 5 10 -5
0 -17 -5 -25 -10z"/>
<path d="M6710 3239 c0 -5 5 -9 11 -9 7 0 18 -8 25 -17 12 -17 13 -16 8 4 -6
21 -44 40 -44 22z"/>
<path d="M6630 3176 c0 -8 5 -18 10 -21 6 -3 10 3 10 14 0 12 -4 21 -10 21 -5
0 -10 -6 -10 -14z"/>
<path d="M6858 3183 c6 -2 18 -2 25 0 6 3 1 5 -13 5 -14 0 -19 -2 -12 -5z"/>
<path d="M6740 3166 c7 -7 13 -7 20 0 6 6 3 10 -10 10 -13 0 -16 -4 -10 -10z"/>
<path d="M6683 3104 c3 -5 -6 -14 -19 -21 -16 -7 -22 -8 -17 -1 3 7 1 8 -5 4
-23 -14 -2 -66 26 -65 12 0 11 3 -5 9 -13 5 -23 12 -23 16 0 3 7 4 15 1 8 -4
17 -1 21 5 4 7 9 6 15 -3 6 -10 9 -10 9 -2 0 6 -5 15 -10 18 -8 5 -8 11 0 20
8 10 8 15 -1 21 -7 4 -10 3 -6 -2z"/>
<path d="M8385 1526 c-22 -8 -74 -16 -115 -19 -41 -3 -97 -11 -123 -17 l-48
-13 30 -31 c45 -47 40 -76 -15 -82 -17 -2 -21 2 -17 16 3 10 0 21 -6 24 -5 4
-7 14 -4 24 5 16 4 16 -13 -1 -16 -15 -17 -19 -4 -27 8 -5 12 -11 9 -15 -3 -3
-17 4 -32 15 -14 11 -31 20 -39 20 -8 -1 -6 -6 7 -16 18 -13 17 -14 -13 -8
-25 5 -32 3 -32 -9 0 -24 49 -43 164 -61 16 -3 29 -6 30 -8 42 -68 57 -74 80
-29 11 21 25 30 53 35 64 10 83 7 118 -20 19 -14 39 -23 45 -19 16 10 12 25
-5 19 -15 -6 -45 11 -45 26 0 9 31 6 48 -4 7 -4 12 -2 12 5 0 7 9 9 28 5 15
-4 34 -8 42 -10 8 -2 26 1 39 6 32 12 46 -3 35 -36 -9 -25 -10 -25 -39 -11
l-30 15 24 -20 c34 -29 49 -25 57 15 8 42 21 44 59 9 29 -27 53 -25 63 5 3 10
0 10 -16 2 -15 -8 -24 -6 -41 8 -12 11 -43 22 -69 26 -40 5 -278 1 -307 -5 -5
-1 -24 -2 -42 -1 -29 1 -33 5 -39 36 -3 20 -9 34 -12 31 -3 -3 -11 -1 -19 5
-10 9 -13 8 -13 -5 0 -29 -16 -17 -18 14 -3 36 26 54 82 51 32 -2 38 1 32 15
-5 14 -4 15 8 5 8 -7 20 -10 26 -6 5 3 10 -2 10 -12 0 -16 1 -16 16 -1 13 13
21 14 34 6 9 -6 29 -8 43 -4 30 7 43 5 40 -6 -2 -5 -2 -8 0 -9 1 0 22 -3 47
-6 25 -3 47 -8 50 -12 9 -11 48 -12 55 -1 9 15 25 2 19 -15 -4 -10 7 -17 36
-25 23 -6 47 -13 54 -16 8 -3 16 2 20 11 4 10 2 14 -5 9 -6 -4 -15 0 -20 7 -8
12 -10 12 -18 0 -7 -11 -15 -7 -40 17 -24 23 -45 31 -88 37 -47 6 -62 13 -88
41 -35 38 -42 39 -100 20z m-315 -167 c0 -6 -8 -8 -17 -6 -10 3 -31 9 -48 13
l-30 7 30 7 c32 7 65 -4 65 -21z m140 21 c-13 -9 -13 -11 0 -20 9 -6 10 -10 3
-10 -15 0 -26 17 -18 30 3 6 12 10 18 10 7 0 6 -4 -3 -10z m-35 -30 c4 -6 -11
-10 -37 -9 -36 1 -39 2 -18 9 36 11 48 11 55 0z m35 -43 c0 5 7 10 15 10 21 0
14 -31 -7 -35 -9 -2 -22 7 -29 20 -11 21 -11 22 4 9 10 -7 17 -9 17 -4z"/>
<path d="M8025 1460 c-12 -4 -27 -15 -35 -25 -10 -12 -5 -11 23 5 20 12 37 24
37 26 0 5 0 5 -25 -6z"/>
<path d="M8068 1463 c7 -3 16 -2 19 1 4 3 -2 6 -13 5 -11 0 -14 -3 -6 -6z"/>
<path d="M8435 1450 c3 -5 8 -10 11 -10 2 0 4 5 4 10 0 6 -5 10 -11 10 -5 0
-7 -4 -4 -10z"/>
<path d="M8360 1430 c0 -5 5 -10 11 -10 5 0 7 5 4 10 -3 6 -8 10 -11 10 -2 0
-4 -4 -4 -10z"/>
<path d="M8121 1423 c0 -4 4 -17 9 -28 8 -19 9 -19 9 2 1 12 -3 25 -9 28 -5 3
-10 3 -9 -2z"/>
<path d="M8757 1423 c28 -4 33 -9 39 -39 7 -38 -3 -119 -18 -148 -7 -13 -13
-15 -21 -7 -6 6 -16 11 -21 11 -6 -1 0 -10 14 -21 l25 -21 13 31 c18 46 26
141 13 174 -9 22 -16 27 -43 25 l-33 -1 32 -4z"/>
</g>
</svg>
